<svg xmlns="http://www.w3.org/2000/svg" width="24" height="24" viewBox="0 0 24 24">
    <g>
        <path d="M23.904 7.055c-.056-1.275-.262-2.152-.557-2.911-.304-.807-.772-1.528-1.384-2.128-.6-.61-1.324-1.083-2.12-1.383-.762-.296-1.632-.502-2.905-.558C15.656.015 15.249 0 11.998 0 8.746 0 8.339.014 7.062.07 5.789.127 4.915.333 4.157.628c-.805.305-1.525.773-2.124 1.388-.608.6-1.08 1.326-1.38 2.123-.295.764-.501 1.636-.557 2.91C.036 8.335.02 8.743.02 12c0 3.258.014 3.666.07 4.945.056 1.275.262 2.152.557 2.911.304.807.777 1.528 1.385 2.128.599.61 1.324 1.083 2.119 1.383.763.296 1.633.502 2.905.558 1.277.056 1.685.07 4.936.07 3.252 0 3.658-.014 4.936-.07 1.272-.056 2.147-.262 2.905-.558 1.61-.623 2.882-1.898 3.504-3.51.295-.765.5-1.637.557-2.912.056-1.28.07-1.687.07-4.945s-.005-3.666-.06-4.945zm-2.157 9.797c-.051 1.171-.248 1.804-.411 2.226-.403 1.045-1.23 1.875-2.274 2.278-.421.164-1.057.361-2.222.413-1.263.056-1.642.07-4.838.07-3.195 0-3.579-.014-4.837-.07-1.17-.052-1.801-.249-2.222-.413-.52-.192-.992-.497-1.376-.895-.397-.39-.702-.858-.893-1.378-.164-.422-.36-1.06-.412-2.227-.056-1.265-.07-1.645-.07-4.847 0-3.201.014-3.586.07-4.846.051-1.172.248-1.805.412-2.227.191-.52.496-.994.898-1.378.388-.399.856-.703 1.375-.895.421-.165 1.058-.361 2.223-.413 1.263-.056 1.642-.07 4.837-.07 3.2 0 3.579.014 4.837.07 1.17.052 1.802.248 2.223.413.519.192.991.496 1.375.895.398.389.702.858.894 1.378.163.422.36 1.06.411 2.227.057 1.265.07 1.645.07 4.846 0 3.202-.013 3.577-.07 4.843z"/>
        <path d="M11.998 5.836C8.6 5.836 5.846 8.596 5.846 12c0 3.403 2.755 6.164 6.152 6.164 3.396 0 6.152-2.76 6.152-6.164 0-3.403-2.756-6.164-6.152-6.164zm0 10.162c-2.204 0-3.991-1.79-3.991-3.998s1.787-3.998 3.99-3.998c2.204 0 3.991 1.79 3.991 3.998s-1.787 3.998-3.99 3.998zM19.83 5.592c0 .795-.644 1.44-1.437 1.44s-1.436-.645-1.436-1.44c0-.795.643-1.439 1.436-1.439.793 0 1.436.644 1.436 1.44z"/>
    </g>
</svg>
