<svg xmlns="http://www.w3.org/2000/svg" width="104" height="56" viewBox="0 0 104 56">
    <g>
        <g>
            <path d="M.975 5.116H.054V3.301h.921v-.493c0-.857.22-1.481.629-1.887.41-.406 1.01-.61 1.8-.61.702 0 1.17.088 1.58.218v1.828c-.323-.116-.63-.19-1.01-.19-.512 0-.805.263-.805.844v.304h1.8v1.801h-1.77v5.898H.975V5.116zM5.32 7.165v-.03c0-2.222 1.594-4.052 3.876-4.052 2.618 0 3.818 2.02 3.818 4.227 0 .174-.015.377-.03.581H7.528c.22 1.002.922 1.526 1.916 1.526.746 0 1.288-.233 1.902-.8l1.272 1.119c-.73.9-1.784 1.452-3.202 1.452-2.356 0-4.097-1.641-4.097-4.023zm5.529-.654c-.132-.988-.717-1.656-1.653-1.656-.922 0-1.522.654-1.697 1.656h3.35zM13.95 7.165v-.03c0-2.222 1.594-4.052 3.876-4.052 2.618 0 3.817 2.02 3.817 4.227 0 .174-.013.377-.028.581h-5.457c.22 1.002.923 1.526 1.917 1.526.745 0 1.287-.233 1.901-.8l1.273 1.119c-.731.9-1.785 1.452-3.203 1.452-2.356 0-4.096-1.641-4.096-4.023zm5.529-.654c-.132-.988-.717-1.656-1.653-1.656-.922 0-1.521.654-1.698 1.656h3.35zM23.062.413L25.286.413 25.286 11.014 23.062 11.014zM26.426 9.983l.95-1.452c.85.61 1.742.93 2.473.93.644 0 .936-.234.936-.582V8.85c0-.48-.76-.64-1.623-.9-1.097-.32-2.341-.83-2.341-2.34v-.029c0-1.583 1.287-2.469 2.867-2.469.995 0 2.077.335 2.926.9l-.849 1.525c-.774-.45-1.55-.725-2.12-.725-.542 0-.82.232-.82.537v.029c0 .436.747.64 1.595.93 1.096.363 2.37.886 2.37 2.31v.029c0 1.728-1.302 2.513-3 2.513-1.097 0-2.325-.364-3.364-1.177zM34.048.413L36.27.413 36.27 6.061 38.874 3.229 41.536 3.229 38.553 6.293 41.639 11.014 39.064 11.014 37.061 7.818 36.27 8.646 36.27 11.014 34.048 11.014z" transform="translate(54.183 31.987)"/>
            <path d="M47.3 3.229h2.31l-3.013 7.974c-.6 1.584-1.243 2.18-2.575 2.18-.803 0-1.404-.205-1.975-.539l.747-1.598c.292.174.658.306.95.306.381 0 .586-.117.776-.509L41.448 3.23h2.355l1.785 5.302 1.711-5.302zM.975 17.85H.054v-1.815h.921v-.494c0-.856.22-1.481.629-1.887.41-.407 1.01-.61 1.8-.61.702 0 1.17.086 1.58.217v1.83c-.323-.116-.63-.188-1.01-.188-.512 0-.805.261-.805.842v.305h1.8v1.8h-1.77v5.898H.975v-5.897zm5.251-4.705h2.34v1.96h-2.34v-1.96zm.059 2.817h2.224v7.786H6.285v-7.786zM10.366 13.145L12.589 13.145 12.589 23.748 10.366 23.748zM14.344 15.962h2.224v1.105c.511-.655 1.184-1.25 2.31-1.25 1.025 0 1.8.45 2.21 1.235.688-.799 1.506-1.235 2.574-1.235 1.653 0 2.648.988 2.648 2.862v5.068h-2.224v-4.343c0-1.045-.468-1.582-1.302-1.582-.833 0-1.346.537-1.346 1.582v4.343h-2.223v-4.343c0-1.045-.468-1.582-1.302-1.582-.834 0-1.346.537-1.346 1.582v4.343h-2.223v-7.785zM27.29 22.717l.95-1.453c.849.611 1.74.93 2.472.93.644 0 .937-.232.937-.58v-.03c0-.479-.761-.64-1.624-.9-1.097-.32-2.34-.828-2.34-2.34v-.028c0-1.584 1.286-2.47 2.866-2.47.995 0 2.077.334 2.926.901l-.849 1.526c-.774-.45-1.55-.727-2.12-.727-.542 0-.82.233-.82.537v.03c0 .435.747.639 1.595.93 1.097.362 2.37.886 2.37 2.309v.03c0 1.727-1.303 2.512-2.999 2.512-1.097 0-2.326-.363-3.364-1.177z" transform="translate(54.183 31.987)"/>
        </g>
        <path d="M53.784 23.104H70.63499999999999V25.143H53.784z"/>
        <g>
            <path d="M22.51.067V2.97C10.641 3 .942 12.19.203 23.8h-.03c-.032.47-.048.945-.048 1.424 0 12.286 10.032 22.25 22.408 22.25v-2.902c11.882-.015 21.596-9.213 22.336-20.827h.003c.03-.47.046-.945.046-1.424C44.918 10.031 34.887.068 22.51.067zm1.27 41.654c-.42.022-.834.039-1.247.013v-.018c-9.6-.588-17.202-8.383-17.21-17.915h.032v-.01H2.916c.48-9.755 8.442-17.468 18.375-17.97.41-.021.816-.038 1.22-.014v.02c9.599.587 17.2 8.382 17.209 17.917h-.003v.01h2.437c-.48 9.752-8.44 17.465-18.374 17.967z" transform="translate(.352 .351)"/>
            <path d="M22.56 8.626v-.024h-.002V10.488h-.048c-7.576.028-13.766 5.899-14.234 13.312h-.028c-.02.299-.03.6-.03.903 0 7.841 6.397 14.2 14.292 14.212v.024h.003v-.023h.02v-1.862c7.59-.013 13.793-5.886 14.262-13.309.019-.298.03-.6.03-.903 0-7.834-6.382-14.187-14.264-14.216zm.699 25.994c-.252.01-.5.02-.749.003-5.432-.352-9.793-4.543-10.282-9.833h6.137c.466 1.829 2.135 3.183 4.122 3.183s3.655-1.354 4.122-3.183h7.62c-.764 5.381-5.26 9.593-10.97 9.83zm3.346-11.923c-.472-1.822-2.137-3.168-4.119-3.168-1.982 0-3.647 1.347-4.118 3.168H10.85c.788-5.354 5.273-9.539 10.962-9.775.236-.01.47-.017.7-.005 5.423.343 9.783 4.511 10.298 9.78h-6.205z" transform="translate(.352 .351)"/>
        </g>
    </g>
</svg>
