<svg xmlns="http://www.w3.org/2000/svg" width="26" height="24" viewBox="0 0 26 24">
    <path d="M22.205.55C18.6.42 16.165 2.5 14.88 6.764c.66-.298 1.303-.431 1.925-.431 1.32 0 1.904.76 1.748 2.27-.078.916-.659 2.247-1.746 3.998-1.093 1.75-1.91 2.628-2.454 2.628-1.649 0-2.64-7.946-2.976-10.116C10.91 2.096 9.665.685 7.643.882 5.786 1.06 2.546 4.428 0 6.71l1.223 1.606c1.165-.831 1.844-1.248 2.038-1.248 2.027 0 3.008 6.946 4.582 12.111 1.057 2.85 2.323 4.277 3.85 4.277 2.452 0 5.44-2.34 8.98-7.02 3.418-4.48 5.188-8.011 5.302-10.587l.014-.01c.145-3.453-1.106-5.22-3.784-5.287z"/>
</svg>
